<svg width="366" height="171" viewBox="0 0 366 171" fill="none" xmlns="http://www.w3.org/2000/svg">
<path d="M32.9688 57.6L26.5688 64H20.1688V70.4H13.7688V64H7.36875L0.96875 57.6V6.4L7.36875 0H26.5688L32.9688 6.4V57.6ZM9.92875 6.4L7.36875 8.96V55.04L9.92875 57.6H13.7688V51.2H20.1688V57.6H24.0088L26.5688 55.04V8.96L24.0088 6.4H9.92875ZM38.0637 0H45.7438V64H39.3438V6.4H38.0637V0ZM50.8762 0H58.5563V57.6H84.1562V64H52.1562V6.4H50.8762V0ZM114.876 0H122.556V55.04L125.116 57.6H139.196L141.756 55.04V0H148.156V57.6L141.756 64H122.556L116.156 57.6V6.4H114.876V0ZM154.531 19.2V6.4L160.931 0H180.131L186.531 6.4V12.8H180.131V8.96L177.571 6.4H163.491L160.931 8.96V16.64L186.531 42.24V57.6L180.131 64H160.931L154.531 57.6V51.2H160.931V55.04L163.491 57.6H177.571L180.131 55.04V44.8L154.531 19.2ZM224.906 6.4H212.106V64H205.706V6.4H192.906V0H224.906V6.4ZM230.001 0H237.681V64H231.281V6.4H230.001V0ZM242.814 0H269.694L276.094 6.4V57.6L269.694 64H244.094V6.4H242.814V0ZM250.494 6.4V57.6H267.134L269.694 55.04V8.96L267.134 6.4H250.494ZM314.469 6.4V64H308.069V32H288.869V64H282.469V6.4L288.869 0H308.069L314.469 6.4ZM288.869 25.6H308.069V8.96L305.509 6.4H291.557L288.869 9.088V25.6ZM340.044 25.6H352.844V57.6L346.444 64H327.244L320.844 57.6V6.4L327.244 0H346.444L352.844 6.4V12.8H346.444V8.96L343.884 6.4H329.804L327.244 8.96V55.04L329.804 57.6H343.884L346.444 55.04V32H340.044V25.6ZM357.939 0H365.619V64H359.219V6.4H357.939V0ZM116.156 106.4H103.356V164H96.9563V106.4H84.1562V100H116.156V106.4ZM154.531 106.4V164H148.131V132H128.931V164H122.531V106.4L128.931 100H148.131L154.531 106.4ZM128.931 125.6H148.131V108.96L145.571 106.4H131.619L128.931 109.088V125.6ZM192.906 157.6L186.506 164H180.106V170.4H173.706V164H167.306L160.906 157.6V106.4L167.306 100H186.506L192.906 106.4V157.6ZM169.866 106.4L167.306 108.96V155.04L169.866 157.6H173.706V151.2H180.106V157.6H183.946L186.506 155.04V108.96L183.946 106.4H169.866ZM198.001 100H224.881L231.281 106.4V157.6L224.881 164H199.281V106.4H198.001V100ZM205.681 106.4V157.6H222.321L224.881 155.04V108.96L222.321 106.4H205.681ZM236.376 100H244.056V164H237.656V106.4H236.376V100ZM249.189 100H276.069L282.469 106.4V125.6L279.205 128.864L282.469 132V164H276.069V134.56L273.509 132H256.869V164H250.469V106.4H249.189V100ZM276.069 123.04V108.96L273.509 106.4H256.869V125.6H273.509L276.069 123.04Z" fill="white"/>
</svg>
