<svg width="844" height="220" fill="none" xmlns="http://www.w3.org/2000/svg"><path d="M182.238 105.379v10.107c0 16.211-2.197 30.762-6.592 43.653-4.394 12.89-10.595 23.877-18.603 32.959-8.008 8.984-17.578 15.869-28.711 20.654-11.035 4.785-23.291 7.178-36.767 7.178-13.38 0-25.635-2.393-36.768-7.178-11.035-4.785-20.606-11.67-28.711-20.654-8.105-9.082-14.404-20.069-18.897-32.959C2.795 146.248.598 131.697.598 115.486v-10.107c0-16.309 2.197-30.86 6.591-43.652 4.395-12.891 10.596-23.877 18.604-32.96 8.105-9.081 17.676-16.015 28.71-20.8C65.638 3.182 77.894.789 91.273.789c13.476 0 25.732 2.393 36.767 7.178 11.133 4.785 20.703 11.719 28.711 20.8 8.105 9.083 14.355 20.069 18.75 32.96 4.492 12.792 6.738 27.343 6.738 43.652zm-44.384 10.107v-10.4c0-11.328-1.026-21.29-3.077-29.883-2.05-8.594-5.078-15.82-9.082-21.68-4.004-5.859-8.886-10.254-14.648-13.183-5.762-3.028-12.354-4.541-19.775-4.541-7.422 0-14.014 1.514-19.776 4.54-5.664 2.93-10.498 7.325-14.502 13.184-3.906 5.86-6.885 13.086-8.935 21.68-2.051 8.594-3.077 18.555-3.077 29.883v10.4c0 11.231 1.026 21.192 3.077 29.883 2.05 8.594 5.078 15.869 9.082 21.826 4.004 5.86 8.886 10.303 14.648 13.33 5.762 3.028 12.354 4.541 19.775 4.541 7.422 0 14.014-1.513 19.776-4.541 5.762-3.027 10.596-7.47 14.502-13.33 3.906-5.957 6.885-13.232 8.935-21.826 2.051-8.691 3.077-18.652 3.077-29.883zM387.609 3.719V217h-43.945V38.143h-85.693V217h-43.946V3.719h173.584zm67.383 77.783h49.805c16.699 0 31.103 2.783 43.213 8.35 12.207 5.566 21.533 13.378 27.978 23.437 6.543 10.059 9.815 21.777 9.815 35.156 0 10.157-1.856 19.434-5.567 27.832-3.711 8.301-9.082 15.528-16.113 21.68-7.031 6.055-15.527 10.742-25.488 14.063-9.961 3.32-21.24 4.98-33.838 4.98h-78.516V3.719h44.092v179.004h34.424c8.301 0 15.185-1.563 20.654-4.688 5.567-3.125 9.717-7.275 12.451-12.451 2.735-5.273 4.102-11.084 4.102-17.432 0-6.054-1.367-11.523-4.102-16.406-2.734-4.98-6.884-8.887-12.451-11.719-5.469-2.832-12.353-4.248-20.654-4.248h-49.805V81.502zM648.498 3.719V217h-43.799V3.719h43.799zm129.199 0V217h-43.799V3.719h43.799zm65.625 0v34.424H669.299V3.719h174.023z" fill="#fff"/></svg>