<svg width="40" height="40" viewBox="0 0 40 40" fill="none" xmlns="http://www.w3.org/2000/svg">
<path d="M20 26.6666C21.7681 26.6666 23.4638 25.9642 24.714 24.714C25.9643 23.4637 26.6666 21.768 26.6666 19.9999C26.6666 18.2318 25.9643 16.5361 24.714 15.2859C23.4638 14.0356 21.7681 13.3333 20 13.3333C18.2319 13.3333 16.5362 14.0356 15.2859 15.2859C14.0357 16.5361 13.3333 18.2318 13.3333 19.9999C13.3333 21.768 14.0357 23.4637 15.2859 24.714C16.5362 25.9642 18.2319 26.6666 20 26.6666V26.6666Z" stroke="white" stroke-width="2" stroke-linecap="round" stroke-linejoin="round"/>
<path d="M5 26.6667V13.3333C5 11.1232 5.87797 9.00358 7.44078 7.44078C9.00358 5.87797 11.1232 5 13.3333 5H26.6667C28.8768 5 30.9964 5.87797 32.5592 7.44078C34.122 9.00358 35 11.1232 35 13.3333V26.6667C35 28.8768 34.122 30.9964 32.5592 32.5592C30.9964 34.122 28.8768 35 26.6667 35H13.3333C11.1232 35 9.00358 34.122 7.44078 32.5592C5.87797 30.9964 5 28.8768 5 26.6667Z" stroke="white" stroke-width="2"/>
<path d="M29.1667 10.8501L29.1834 10.8318" stroke="white" stroke-width="2" stroke-linecap="round" stroke-linejoin="round"/>
</svg>
