<svg width="20" height="20" viewBox="0 0 24 24" fill="none" xmlns="http://www.w3.org/2000/svg">
<path d="M14 12L10.5 14V10L14 12Z" fill="#FF0000" stroke="#FF0000" stroke-width="1.99" stroke-linecap="round" stroke-linejoin="round"/>
<path d="M2 12.707V11.292C2 8.39699 2 6.94899 2.905 6.01799C3.811 5.08599 5.237 5.04599 8.088 4.96499C9.438 4.92699 10.818 4.89999 12 4.89999C13.181 4.89999 14.561 4.92699 15.912 4.96499C18.763 5.04599 20.189 5.08599 21.094 6.01799C22 6.94899 22 8.39799 22 11.292V12.707C22 15.603 22 17.05 21.095 17.982C20.189 18.913 18.764 18.954 15.912 19.034C14.562 19.073 13.182 19.1 12 19.1C10.819 19.1 9.439 19.073 8.088 19.034C5.237 18.954 3.811 18.914 2.905 17.982C2 17.05 2 15.602 2 12.708V12.707Z" stroke="#FF0000" stroke-width="1.99"/>
</svg>
