<svg width="20" height="20" viewBox="0 0 24 24" fill="none" xmlns="http://www.w3.org/2000/svg">
<g opacity="0.5">
<path d="M14 14V6.00001M14 14L20.102 17.487C20.1932 17.5392 20.2965 17.5665 20.4015 17.5662C20.5066 17.566 20.6097 17.5381 20.7007 17.4855C20.7916 17.4328 20.8671 17.3572 20.9196 17.2662C20.9721 17.1753 20.9999 17.0721 21 16.967V3.03301C21 2.92786 20.9724 2.82455 20.92 2.73342C20.8675 2.6423 20.792 2.56656 20.7011 2.51379C20.6102 2.46103 20.5069 2.43309 20.4018 2.43277C20.2966 2.43246 20.1933 2.45978 20.102 2.51201L14 6.00001M14 14H7C5.93913 14 4.92172 13.5786 4.17157 12.8284C3.42143 12.0783 3 11.0609 3 10C3 8.93914 3.42143 7.92172 4.17157 7.17158C4.92172 6.42143 5.93913 6.00001 7 6.00001H14M7.757 19.3L7 14H11L11.677 18.74C11.7456 19.2571 11.6073 19.7804 11.2922 20.1962C10.977 20.6119 10.5106 20.8865 9.99419 20.9603C9.47776 21.0341 8.95309 20.9011 8.53419 20.5902C8.11528 20.2793 7.83599 19.8157 7.757 19.3V19.3Z" stroke="white" stroke-width="1.99"/>
</g>
</svg>
