<svg width="40" height="40" viewBox="0 0 40 40" fill="none" xmlns="http://www.w3.org/2000/svg">
<path d="M23.3333 20.0001L17.5 23.3334V16.6667L23.3333 20.0001Z" fill="white" stroke="white" stroke-width="2" stroke-linecap="round" stroke-linejoin="round"/>
<path d="M3.33331 21.1784V18.8201C3.33331 13.9951 3.33331 11.5817 4.84165 10.0301C6.35165 8.47675 8.72831 8.41008 13.48 8.27508C15.73 8.21175 18.03 8.16675 20 8.16675C21.9683 8.16675 24.2683 8.21175 26.52 8.27508C31.2716 8.41008 33.6483 8.47675 35.1566 10.0301C36.6666 11.5817 36.6666 13.9967 36.6666 18.8201V21.1784C36.6666 26.0051 36.6666 28.4167 35.1583 29.9701C33.6483 31.5217 31.2733 31.5901 26.52 31.7234C24.27 31.7884 21.97 31.8334 20 31.8334C18.0316 31.8334 15.7316 31.7884 13.48 31.7234C8.72831 31.5901 6.35165 31.5234 4.84165 29.9701C3.33331 28.4167 3.33331 26.0034 3.33331 21.1801V21.1784Z" stroke="white" stroke-width="2"/>
</svg>
